# xmcd
#
# Track frame offsets: 
#        150
#        12189
#        25767
#        40018
#        52688
#        63601
#        75756
#        87254
#        99294
#        112049
#        124881
#        135341
#        147646
#        159651
#        170159
#        181269
#        194657
#        207217
#        219262
#        231639
#        243709
#        255300
#        266925
#        279497
#        291232
#        304733
#        317357
#        330411
#
# Disc length: 4552 seconds
#
# Revision: 3
# Processed by: cddbd v1.5.2PL0 Copyright (c) Steve Scherf et al.
# Submitted via: ExactAudioCopy v1.3
#
DISCID=9011c61c
DTITLE=Lightnin' Hopkins - Texas Thunderbolt
DYEAR=2007
DGENRE=Blues
TTITLE0=West Coast Blues
TTITLE1=Katie Mae Blues
TTITLE2=That Mean Old Twister
TTITLE3=I Can't Stay Here In Your Town
TTITLE4=Short Haired Woman
TTITLE5=Little Mama Boogie
TTITLE6=(Let Me) Play With Your Poodle
TTITLE7=Can't Get That Woman Off My Mind
TTITLE8=Picture On the Wall
TTITLE9=You're Not Goin' To Worry My Life Anymore
TTITLE10=Miss Me Blues
TTITLE11=Sugar On My Mind
TTITLE12=Nightmare Blues
TTITLE13=Lightnin's Boogie
TTITLE14=Daddy Will Be Home One Day
TTITLE15=Moonrise Blues
TTITLE16=Morning Blues
TTITLE17=Have To Let You Go
TTITLE18=Mama's Baby Child
TTITLE19=Mistreater Blues
TTITLE20=My California
TTITLE21=Honey Babe
TTITLE22=So Long
TTITLE23=See See Rider
TTITLE24=Unpredictable Woman
TTITLE25=I Just Don't Care
TTITLE26=Whiskey Headed Woman
TTITLE27=Abilene
EXTD=upc =805520-015899\nrecorded in Los Angeles, CA, USA in 1947 and H
EXTD=ouston TX, USA in 1947, 1948
EXTT0=
EXTT1=
EXTT2=
EXTT3=
EXTT4=
EXTT5=
EXTT6=
EXTT7=
EXTT8=
EXTT9=
EXTT10=
EXTT11=
EXTT12=
EXTT13=
EXTT14=
EXTT15=
EXTT16=
EXTT17=
EXTT18=
EXTT19=
EXTT20=
EXTT21=
EXTT22=
EXTT23=
EXTT24=
EXTT25=
EXTT26=
EXTT27=
PLAYORDER=
